<mxfile host="app.diagrams.net" modified="2023-12-19T14:52:56.813Z" agent="Mozilla/5.0 (Windows NT 10.0; Win64; x64) AppleWebKit/537.36 (KHTML, like Gecko) Chrome/120.0.0.0 Safari/537.36" etag="YARU8I9x9wD0a_C-TnaF" version="22.1.11" type="device">
  <diagram id="2f404044-711c-603c-8f00-f6bb4c023d3c" name="Page-1">
    <mxGraphModel dx="1389" dy="1489" grid="1" gridSize="10" guides="1" tooltips="1" connect="1" arrows="1" fold="1" page="1" pageScale="1" pageWidth="1169" pageHeight="827" background="none" math="0" shadow="0">
      <root>
        <mxCell id="0" />
        <mxCell id="1" parent="0" />
        <mxCell id="Z6fwXCohX9NOkVPyWXO6-70" style="edgeStyle=orthogonalEdgeStyle;rounded=0;orthogonalLoop=1;jettySize=auto;html=1;entryX=0.5;entryY=0;entryDx=0;entryDy=0;" edge="1" parent="1" source="Z6fwXCohX9NOkVPyWXO6-63" target="Z6fwXCohX9NOkVPyWXO6-64">
          <mxGeometry relative="1" as="geometry" />
        </mxCell>
        <mxCell id="Z6fwXCohX9NOkVPyWXO6-63" value="Command-line Interface" style="rounded=0;whiteSpace=wrap;html=1;" vertex="1" parent="1">
          <mxGeometry x="710" y="40" width="225" height="40" as="geometry" />
        </mxCell>
        <mxCell id="Z6fwXCohX9NOkVPyWXO6-71" style="edgeStyle=orthogonalEdgeStyle;rounded=0;orthogonalLoop=1;jettySize=auto;html=1;entryX=0.5;entryY=0;entryDx=0;entryDy=0;" edge="1" parent="1" source="Z6fwXCohX9NOkVPyWXO6-64" target="Z6fwXCohX9NOkVPyWXO6-65">
          <mxGeometry relative="1" as="geometry" />
        </mxCell>
        <mxCell id="Z6fwXCohX9NOkVPyWXO6-73" style="edgeStyle=orthogonalEdgeStyle;rounded=0;orthogonalLoop=1;jettySize=auto;html=1;entryX=0.5;entryY=0;entryDx=0;entryDy=0;" edge="1" parent="1" source="Z6fwXCohX9NOkVPyWXO6-64" target="Z6fwXCohX9NOkVPyWXO6-67">
          <mxGeometry relative="1" as="geometry">
            <Array as="points">
              <mxPoint x="760" y="200" />
              <mxPoint x="672" y="200" />
            </Array>
          </mxGeometry>
        </mxCell>
        <mxCell id="Z6fwXCohX9NOkVPyWXO6-75" style="edgeStyle=orthogonalEdgeStyle;rounded=0;orthogonalLoop=1;jettySize=auto;html=1;entryX=0.5;entryY=0;entryDx=0;entryDy=0;" edge="1" parent="1" source="Z6fwXCohX9NOkVPyWXO6-64" target="Z6fwXCohX9NOkVPyWXO6-68">
          <mxGeometry relative="1" as="geometry">
            <Array as="points">
              <mxPoint x="870" y="200" />
              <mxPoint x="923" y="200" />
            </Array>
          </mxGeometry>
        </mxCell>
        <mxCell id="Z6fwXCohX9NOkVPyWXO6-76" style="edgeStyle=orthogonalEdgeStyle;rounded=0;orthogonalLoop=1;jettySize=auto;html=1;entryX=0.5;entryY=0;entryDx=0;entryDy=0;" edge="1" parent="1" source="Z6fwXCohX9NOkVPyWXO6-64" target="Z6fwXCohX9NOkVPyWXO6-69">
          <mxGeometry relative="1" as="geometry" />
        </mxCell>
        <mxCell id="Z6fwXCohX9NOkVPyWXO6-64" value="internsctl Script" style="rounded=0;whiteSpace=wrap;html=1;" vertex="1" parent="1">
          <mxGeometry x="710" y="130" width="225" height="40" as="geometry" />
        </mxCell>
        <mxCell id="Z6fwXCohX9NOkVPyWXO6-84" style="edgeStyle=orthogonalEdgeStyle;rounded=0;orthogonalLoop=1;jettySize=auto;html=1;entryX=0.5;entryY=0;entryDx=0;entryDy=0;" edge="1" parent="1" source="Z6fwXCohX9NOkVPyWXO6-65" target="Z6fwXCohX9NOkVPyWXO6-81">
          <mxGeometry relative="1" as="geometry" />
        </mxCell>
        <mxCell id="Z6fwXCohX9NOkVPyWXO6-65" value="Function: CPU info" style="rounded=0;whiteSpace=wrap;html=1;" vertex="1" parent="1">
          <mxGeometry x="30" y="230" width="225" height="40" as="geometry" />
        </mxCell>
        <mxCell id="Z6fwXCohX9NOkVPyWXO6-85" style="edgeStyle=orthogonalEdgeStyle;rounded=0;orthogonalLoop=1;jettySize=auto;html=1;entryX=0.5;entryY=0;entryDx=0;entryDy=0;" edge="1" parent="1" source="Z6fwXCohX9NOkVPyWXO6-66" target="Z6fwXCohX9NOkVPyWXO6-78">
          <mxGeometry relative="1" as="geometry" />
        </mxCell>
        <mxCell id="Z6fwXCohX9NOkVPyWXO6-66" value="Function: Memory info" style="rounded=0;whiteSpace=wrap;html=1;" vertex="1" parent="1">
          <mxGeometry x="300" y="230" width="225" height="40" as="geometry" />
        </mxCell>
        <mxCell id="Z6fwXCohX9NOkVPyWXO6-86" style="edgeStyle=orthogonalEdgeStyle;rounded=0;orthogonalLoop=1;jettySize=auto;html=1;entryX=0.5;entryY=0;entryDx=0;entryDy=0;" edge="1" parent="1" source="Z6fwXCohX9NOkVPyWXO6-67" target="Z6fwXCohX9NOkVPyWXO6-79">
          <mxGeometry relative="1" as="geometry" />
        </mxCell>
        <mxCell id="Z6fwXCohX9NOkVPyWXO6-87" style="edgeStyle=orthogonalEdgeStyle;rounded=0;orthogonalLoop=1;jettySize=auto;html=1;" edge="1" parent="1" source="Z6fwXCohX9NOkVPyWXO6-67" target="Z6fwXCohX9NOkVPyWXO6-80">
          <mxGeometry relative="1" as="geometry">
            <Array as="points">
              <mxPoint x="730" y="290" />
              <mxPoint x="922" y="290" />
            </Array>
          </mxGeometry>
        </mxCell>
        <mxCell id="Z6fwXCohX9NOkVPyWXO6-67" value="Function: User Management" style="rounded=0;whiteSpace=wrap;html=1;" vertex="1" parent="1">
          <mxGeometry x="560" y="230" width="225" height="40" as="geometry" />
        </mxCell>
        <mxCell id="Z6fwXCohX9NOkVPyWXO6-88" style="edgeStyle=orthogonalEdgeStyle;rounded=0;orthogonalLoop=1;jettySize=auto;html=1;" edge="1" parent="1" source="Z6fwXCohX9NOkVPyWXO6-68" target="Z6fwXCohX9NOkVPyWXO6-82">
          <mxGeometry relative="1" as="geometry">
            <Array as="points">
              <mxPoint x="922" y="280" />
              <mxPoint x="1172" y="280" />
            </Array>
          </mxGeometry>
        </mxCell>
        <mxCell id="Z6fwXCohX9NOkVPyWXO6-68" value="Function: File Info" style="rounded=0;whiteSpace=wrap;html=1;" vertex="1" parent="1">
          <mxGeometry x="810" y="230" width="225" height="40" as="geometry" />
        </mxCell>
        <mxCell id="Z6fwXCohX9NOkVPyWXO6-89" style="edgeStyle=orthogonalEdgeStyle;rounded=0;orthogonalLoop=1;jettySize=auto;html=1;" edge="1" parent="1" source="Z6fwXCohX9NOkVPyWXO6-69" target="Z6fwXCohX9NOkVPyWXO6-83">
          <mxGeometry relative="1" as="geometry" />
        </mxCell>
        <mxCell id="Z6fwXCohX9NOkVPyWXO6-69" value="Dependencies" style="rounded=0;whiteSpace=wrap;html=1;" vertex="1" parent="1">
          <mxGeometry x="1060" y="230" width="225" height="40" as="geometry" />
        </mxCell>
        <mxCell id="Z6fwXCohX9NOkVPyWXO6-77" style="edgeStyle=orthogonalEdgeStyle;rounded=0;orthogonalLoop=1;jettySize=auto;html=1;entryX=0.921;entryY=-0.035;entryDx=0;entryDy=0;entryPerimeter=0;exitX=-0.01;exitY=0.822;exitDx=0;exitDy=0;exitPerimeter=0;" edge="1" parent="1" source="Z6fwXCohX9NOkVPyWXO6-64">
          <mxGeometry relative="1" as="geometry">
            <mxPoint x="602.81" y="161.39999999999995" as="sourcePoint" />
            <mxPoint x="400.0349999999999" y="229.99999999999991" as="targetPoint" />
            <Array as="points">
              <mxPoint x="710" y="163" />
              <mxPoint x="710" y="161" />
              <mxPoint x="400" y="161" />
            </Array>
          </mxGeometry>
        </mxCell>
        <mxCell id="Z6fwXCohX9NOkVPyWXO6-92" style="edgeStyle=orthogonalEdgeStyle;rounded=0;orthogonalLoop=1;jettySize=auto;html=1;entryX=0;entryY=0;entryDx=0;entryDy=0;" edge="1" parent="1" source="Z6fwXCohX9NOkVPyWXO6-78" target="Z6fwXCohX9NOkVPyWXO6-90">
          <mxGeometry relative="1" as="geometry">
            <Array as="points">
              <mxPoint x="413" y="420" />
              <mxPoint x="640" y="420" />
            </Array>
          </mxGeometry>
        </mxCell>
        <mxCell id="Z6fwXCohX9NOkVPyWXO6-78" value="External Command: free" style="rounded=0;whiteSpace=wrap;html=1;" vertex="1" parent="1">
          <mxGeometry x="300" y="320" width="225" height="40" as="geometry" />
        </mxCell>
        <mxCell id="Z6fwXCohX9NOkVPyWXO6-93" value="" style="edgeStyle=orthogonalEdgeStyle;rounded=0;orthogonalLoop=1;jettySize=auto;html=1;" edge="1" parent="1" source="Z6fwXCohX9NOkVPyWXO6-79" target="Z6fwXCohX9NOkVPyWXO6-90">
          <mxGeometry relative="1" as="geometry" />
        </mxCell>
        <mxCell id="Z6fwXCohX9NOkVPyWXO6-79" value="External Command: useradd" style="rounded=0;whiteSpace=wrap;html=1;" vertex="1" parent="1">
          <mxGeometry x="560" y="320" width="225" height="40" as="geometry" />
        </mxCell>
        <mxCell id="Z6fwXCohX9NOkVPyWXO6-96" style="edgeStyle=orthogonalEdgeStyle;rounded=0;orthogonalLoop=1;jettySize=auto;html=1;entryX=1;entryY=0;entryDx=0;entryDy=0;" edge="1" parent="1" source="Z6fwXCohX9NOkVPyWXO6-80" target="Z6fwXCohX9NOkVPyWXO6-90">
          <mxGeometry relative="1" as="geometry">
            <Array as="points">
              <mxPoint x="923" y="390" />
              <mxPoint x="740" y="390" />
            </Array>
          </mxGeometry>
        </mxCell>
        <mxCell id="Z6fwXCohX9NOkVPyWXO6-80" value="External Command: getent" style="rounded=0;whiteSpace=wrap;html=1;" vertex="1" parent="1">
          <mxGeometry x="810" y="320" width="225" height="40" as="geometry" />
        </mxCell>
        <mxCell id="Z6fwXCohX9NOkVPyWXO6-91" style="edgeStyle=orthogonalEdgeStyle;rounded=0;orthogonalLoop=1;jettySize=auto;html=1;entryX=0;entryY=0.5;entryDx=0;entryDy=0;" edge="1" parent="1" source="Z6fwXCohX9NOkVPyWXO6-81" target="Z6fwXCohX9NOkVPyWXO6-90">
          <mxGeometry relative="1" as="geometry">
            <Array as="points">
              <mxPoint x="143" y="450" />
              <mxPoint x="423" y="450" />
              <mxPoint x="423" y="514" />
            </Array>
          </mxGeometry>
        </mxCell>
        <mxCell id="Z6fwXCohX9NOkVPyWXO6-81" value="External Command: lscpu" style="rounded=0;whiteSpace=wrap;html=1;" vertex="1" parent="1">
          <mxGeometry x="30" y="320" width="225" height="40" as="geometry" />
        </mxCell>
        <mxCell id="Z6fwXCohX9NOkVPyWXO6-97" style="edgeStyle=orthogonalEdgeStyle;rounded=0;orthogonalLoop=1;jettySize=auto;html=1;entryX=1;entryY=0.5;entryDx=0;entryDy=0;" edge="1" parent="1" source="Z6fwXCohX9NOkVPyWXO6-82" target="Z6fwXCohX9NOkVPyWXO6-90">
          <mxGeometry relative="1" as="geometry">
            <Array as="points">
              <mxPoint x="1173" y="450" />
              <mxPoint x="925" y="450" />
              <mxPoint x="925" y="514" />
            </Array>
          </mxGeometry>
        </mxCell>
        <mxCell id="Z6fwXCohX9NOkVPyWXO6-82" value="External Command: stat" style="rounded=0;whiteSpace=wrap;html=1;" vertex="1" parent="1">
          <mxGeometry x="1060" y="320" width="225" height="40" as="geometry" />
        </mxCell>
        <mxCell id="Z6fwXCohX9NOkVPyWXO6-83" value="External Tools/Libraries" style="rounded=0;whiteSpace=wrap;html=1;" vertex="1" parent="1">
          <mxGeometry x="1310" y="320" width="225" height="40" as="geometry" />
        </mxCell>
        <mxCell id="Z6fwXCohX9NOkVPyWXO6-90" value="&lt;font style=&quot;font-size: 24px;&quot;&gt;Output to &lt;br&gt;Console&lt;/font&gt;" style="rhombus;whiteSpace=wrap;html=1;" vertex="1" parent="1">
          <mxGeometry x="590" y="414" width="200" height="200" as="geometry" />
        </mxCell>
        <mxCell id="Z6fwXCohX9NOkVPyWXO6-98" style="edgeStyle=orthogonalEdgeStyle;rounded=0;orthogonalLoop=1;jettySize=auto;html=1;entryX=0.719;entryY=0.836;entryDx=0;entryDy=0;entryPerimeter=0;" edge="1" parent="1" source="Z6fwXCohX9NOkVPyWXO6-83" target="Z6fwXCohX9NOkVPyWXO6-90">
          <mxGeometry relative="1" as="geometry">
            <Array as="points">
              <mxPoint x="1423" y="581" />
            </Array>
          </mxGeometry>
        </mxCell>
      </root>
    </mxGraphModel>
  </diagram>
</mxfile>
